<mxfile host="app.diagrams.net" agent="Mozilla/5.0 (Macintosh; Intel Mac OS X 10.15; rv:143.0) Gecko/20100101 Firefox/143.0" version="28.2.5">
  <diagram name="PÃ gina-1" id="Iq7bCuWZOCWh3wGK04Si">
    <mxGraphModel dx="781" dy="703" grid="1" gridSize="10" guides="1" tooltips="1" connect="1" arrows="1" fold="1" page="1" pageScale="1" pageWidth="827" pageHeight="1169" background="light-dark(#FFFFFF,#FFFFFF)" math="0" shadow="0">
      <root>
        <mxCell id="0" />
        <mxCell id="1" parent="0" />
        <mxCell id="BhhY6AJUUI-Pj-VEABI7-1" value="Base Image" style="rounded=0;whiteSpace=wrap;html=1;fillColor=light-dark(#60A917,#CD5C5C);fontColor=#ffffff;strokeColor=light-dark(#2D7600,#000000);" vertex="1" parent="1">
          <mxGeometry x="139" y="350" width="120" height="40" as="geometry" />
        </mxCell>
        <mxCell id="BhhY6AJUUI-Pj-VEABI7-2" value="Base Image" style="rounded=0;whiteSpace=wrap;html=1;fillColor=light-dark(#60A917,#CD5C5C);fontColor=#ffffff;strokeColor=light-dark(#2D7600,#000000);" vertex="1" parent="1">
          <mxGeometry x="340" y="350" width="120" height="40" as="geometry" />
        </mxCell>
        <mxCell id="BhhY6AJUUI-Pj-VEABI7-3" value="Writable Layer" style="rounded=0;whiteSpace=wrap;html=1;fillColor=light-dark(#60A917,#B8860B);fontColor=#ffffff;strokeColor=light-dark(#2D7600,#000000);" vertex="1" parent="1">
          <mxGeometry x="340" y="300" width="120" height="40" as="geometry" />
        </mxCell>
        <mxCell id="BhhY6AJUUI-Pj-VEABI7-7" value="&lt;font&gt;&lt;span&gt;run&lt;/span&gt;&lt;/font&gt;" style="endArrow=classic;html=1;rounded=0;strokeColor=light-dark(#000000,#000000);labelBackgroundColor=light-dark(#FFFFFF,#FFFFFF);fontColor=light-dark(#000000,#000000);fontSize=13;strokeWidth=2;endFill=1;" edge="1" parent="1">
          <mxGeometry relative="1" as="geometry">
            <mxPoint x="260" y="345" as="sourcePoint" />
            <mxPoint x="340" y="345" as="targetPoint" />
            <mxPoint as="offset" />
          </mxGeometry>
        </mxCell>
        <mxCell id="BhhY6AJUUI-Pj-VEABI7-9" value="&lt;span style=&quot;color: light-dark(rgb(0, 0, 0), rgb(0, 0, 0));&quot;&gt;Image&lt;/span&gt;" style="text;html=1;fontSize=14;fontStyle=1;verticalAlign=bottom;align=center;" vertex="1" parent="1">
          <mxGeometry x="139" y="390" width="120" height="30" as="geometry" />
        </mxCell>
        <mxCell id="BhhY6AJUUI-Pj-VEABI7-10" value="&lt;span style=&quot;color: light-dark(rgb(0, 0, 0), rgb(0, 0, 0));&quot;&gt;Container&lt;/span&gt;" style="text;strokeColor=none;fillColor=none;html=1;fontSize=14;fontStyle=1;verticalAlign=bottom;align=center;" vertex="1" parent="1">
          <mxGeometry x="340" y="390" width="120" height="30" as="geometry" />
        </mxCell>
        <mxCell id="BhhY6AJUUI-Pj-VEABI7-11" value="Base Image" style="rounded=0;whiteSpace=wrap;html=1;fillColor=light-dark(#60A917,#CD5C5C);fontColor=#ffffff;strokeColor=light-dark(#2D7600,#000000);" vertex="1" parent="1">
          <mxGeometry x="560" y="350" width="120" height="40" as="geometry" />
        </mxCell>
        <mxCell id="BhhY6AJUUI-Pj-VEABI7-12" value="New Layer" style="rounded=0;whiteSpace=wrap;html=1;fillColor=light-dark(#60A917,#CD5C5C);fontColor=#ffffff;strokeColor=light-dark(#2D7600,#000000);" vertex="1" parent="1">
          <mxGeometry x="560" y="300" width="120" height="40" as="geometry" />
        </mxCell>
        <mxCell id="BhhY6AJUUI-Pj-VEABI7-13" value="&lt;span style=&quot;color: light-dark(rgb(0, 0, 0), rgb(0, 0, 0));&quot;&gt;Image&lt;/span&gt;" style="text;strokeColor=none;fillColor=none;html=1;fontSize=14;fontStyle=1;verticalAlign=bottom;align=center;" vertex="1" parent="1">
          <mxGeometry x="560" y="390" width="120" height="30" as="geometry" />
        </mxCell>
        <mxCell id="BhhY6AJUUI-Pj-VEABI7-15" value="&lt;div&gt;&lt;font&gt;make&lt;/font&gt;&lt;/div&gt;&lt;div&gt;&lt;font&gt;changes&lt;/font&gt;&lt;/div&gt;&lt;div&gt;&lt;font&gt;+ commit&lt;/font&gt;&lt;/div&gt;" style="endArrow=classic;html=1;rounded=0;strokeColor=light-dark(#000000,#000000);fontColor=light-dark(#000000,#000000);labelBackgroundColor=light-dark(#FFFFFF,#FFFFFF);spacing=2;spacingRight=0;spacingTop=0;fontSize=13;startSize=6;strokeWidth=2;" edge="1" parent="1">
          <mxGeometry relative="1" as="geometry">
            <mxPoint x="460" y="345" as="sourcePoint" />
            <mxPoint x="560" y="345" as="targetPoint" />
          </mxGeometry>
        </mxCell>
      </root>
    </mxGraphModel>
  </diagram>
</mxfile>
